<svg width="78" height="78" viewBox="0 0 78 78" fill="none" xmlns="http://www.w3.org/2000/svg">
  <rect width="78" height="78" fill="#F8CD57"/>
  <path d="M59.5 22.1H44.1V30.9H59.5C62.3 30.9 64.6 33.2 64.6 36C64.6 38.8 62.3 41.1 59.5 41.1H51.4H51.3C48.9 36.5 44.1 33.5 38.9 33.5C37.1 33.5 35.4 33.8 33.8 34.5V34C33.3 26.8 27.2 21 19.9 21C12.2 21 6 27.2 6 34.9V56.6H14.8V34.9C14.8 32.1 17.1 29.8 19.9 29.8C22.7 29.8 25 32.1 25 34.9V56.6H33.8V47.5C33.8 44.7 36.1 42.4 38.9 42.4C41.7 42.4 44 44.7 44 47.5V56.1V56.6H52.8V49.9H59.5C67.2 49.9 73.4 43.7 73.4 36C73.4 28.3 67.2 22.1 59.5 22.1Z" fill="#333333"/>
</svg>
